# xmcd CD database file
#
# Track frame offsets:
#	150
#	24108
#	49304
#	73457
#	92198
#	121742
#	149713
#	178375
#	200882
#	219857
#	255945
#	258856
#	278945
#	299260
#
# Disc length: 4290 seconds
#
# Revision: 0
# Processed by: cddbd v1.5.2PL0 Copyright (c) Steve Scherf et al.
# Submitted via: CDex 1.70beta2
#
DISCID=e010c00e
DTITLE=Berlin 21 - Odds On
DYEAR=2016
DGENRE=Jazz
TTITLE0=Sitaki Shari
TTITLE1=Swindle
TTITLE2=Take Back The Scene
TTITLE3=Steppin' In
TTITLE4=Third Line
TTITLE5=Black Sea Blues
TTITLE6=W.M.
TTITLE7=Ten To The Bar
TTITLE8=To 3 or Not To 3
TTITLE9=Five Elements
TTITLE10=Key Turn
TTITLE11=Insight
TTITLE12=Express Brain
TTITLE13=Mockingbird
EXTD=YEAR: 2016
EXTT0=
EXTT1=
EXTT2=
EXTT3=
EXTT4=
EXTT5=
EXTT6=
EXTT7=
EXTT8=
EXTT9=
EXTT10=
EXTT11=
EXTT12=
EXTT13=
PLAYORDER=
